# xmcd
#
# Track frame offsets:
# 150
# 6065
# 14175
# 23895
# 31545
# 37132
# 46325
# 54170
# 65195
# 73035
# 78690
# 84965
# 90070
# 98272
#
# Disc length: 1447 seconds
#
#
# Revision: 4
# Processed by: cddbd v1.4PL0 Copyright (c) Steve Scherf et al.
# Submitted via: FreeRIP 2.30 
#
DISCID=a005a50e
DTITLE=Gossip - That's Not What I Heard
DYEAR=2000
DGENRE=Rock and Roll
TTITLE0=Swing Low
TTITLE1=Got All This Waiting
TTITLE2=Bones
TTITLE3=Sweet Baby
TTITLE4=Tuff Luv
TTITLE5=Got Body If You Want It
TTITLE6=Where The Girls Are
TTITLE7=Bring It On
TTITLE8=Heartbeats
TTITLE9=Catfight
TTITLE10=Jailbreak
TTITLE11=Southern Comfort
TTITLE12=And You Know...
TTITLE13=Hott Date
EXTD=
EXTT0=
EXTT1=
EXTT2=
EXTT3=
EXTT4=
EXTT5=
EXTT6=
EXTT7=
EXTT8=
EXTT9=
EXTT10=
EXTT11=
EXTT12=
EXTT13=
PLAYORDER=
